<svg xmlns="http://www.w3.org/2000/svg" viewBox="0 0 320 80" fill="white">

  <!-- ── Double-D Badge ─────────────────────────────── -->
  <!-- Outer rounded square -->
  <rect x="2" y="2" width="76" height="76" rx="14" ry="14" fill="white"/>

  <!-- Left half-D cutout (black) -->
  <path d="M39 10 L20 10 C14 10 10 14 10 20 L10 60 C10 66 14 70 20 70 L39 70 Z" fill="#000"/>
  <!-- Left inner arc cutout -->
  <path d="M39 22 L24 22 C21 22 19 24 19 27 L19 53 C19 56 21 58 24 58 L39 58 Z" fill="white"/>

  <!-- Right half-D cutout (black) -->
  <path d="M39 10 L58 10 C64 10 68 14 68 20 L68 60 C68 66 64 70 58 70 L39 70 Z" fill="#000"/>
  <!-- Right inner arc cutout -->
  <path d="M39 22 L54 22 C57 22 59 24 59 27 L59 53 C59 56 57 58 54 58 L39 58 Z" fill="white"/>

  <!-- Center divider line -->
  <rect x="37" y="10" width="4" height="60" fill="white"/>

  <!-- ── DOLBY wordmark ──────────────────────────────── -->
  <text
    x="92" y="46"
    font-family="'Arial Rounded MT Bold', 'Nunito', 'Arial Black', Arial, sans-serif"
    font-weight="900"
    font-size="34"
    letter-spacing="1"
    fill="white"
  >Dolby</text>

  <!-- ── ATMOS subtitle ─────────────────────────────── -->
  <text
    x="94" y="66"
    font-family="Arial, Helvetica, sans-serif"
    font-weight="400"
    font-size="15"
    letter-spacing="9"
    fill="white"
  >ATMOS</text>

</svg>
